# xmcd
#
# Track frame offsets:
#	150
#	20700
#	36879
#	52877
#	71216
#	89235
#	103352
#	120082
#	133802
#	148895
#	159195
#	175402
#	190376
#	204925
#	221766
#	237367
#	248677
#	265281
#	285006
#	298016
#	312050
#
# Disc length: 4359 seconds
#
# Revision: 0
# Processed by: cddbd v1.5.2PL0 Copyright (c) Steve Scherf et al.
# Submitted via: audiograbber 1.83.01
#
DISCID=40110515
DTITLE=Alan Ladd - Sing Country - CD 1: Country-Treffers
DYEAR=2007
DGENRE=Country
TTITLE0=Back Home Again
TTITLE1=Vertical Expression
TTITLE2=The Gambler
TTITLE3=One In A Million
TTITLE4=Lucille
TTITLE5=Okie From Muskogee
TTITLE6=California Blues
TTITLE7=Tiny Bubbles
TTITLE8=Is This The Way To Amarillo
TTITLE9=Far Away
TTITLE10=Some Days Are Diamonds
TTITLE11=Rhinestone Cowboy
TTITLE12=Let Me Cry
TTITLE13=Blue Spanish Eyes
TTITLE14=Good Hearted Woman
TTITLE15=Gorgeous Woman
TTITLE16=Boy Named Sue
TTITLE17=Vincent
TTITLE18=I Will Stay
TTITLE19=Wild Side Of Life
TTITLE20=Cherry Red
EXTD=
EXTT0=
EXTT1=
EXTT2=
EXTT3=
EXTT4=
EXTT5=
EXTT6=
EXTT7=
EXTT8=
EXTT9=
EXTT10=
EXTT11=
EXTT12=
EXTT13=
EXTT14=
EXTT15=
EXTT16=
EXTT17=
EXTT18=
EXTT19=
EXTT20=
PLAYORDER=
